<svg viewBox="0 0 375 780" xmlns="http://www.w3.org/2000/svg" role="img" style="width:100%;max-width:375px;display:block;margin:0 auto;font-family:ui-monospace,SFMono-Regular,Menlo,monospace">
<title>ARIA dashboard showing live ML research experiment results</title>
<rect width="375" height="780" fill="#0d1117"/>
<rect width="375" height="44" fill="#161b22"/>
<circle cx="18" cy="22" r="7" fill="#30a14e"/>
<text x="30" y="27" fill="#58a6ff" font-size="14" font-weight="600">aria</text>
<circle cx="74" cy="22" r="4" fill="#30a14e"/>
<text x="82" y="27" fill="#30a14e" font-size="11">RUNNING</text>
<text x="160" y="27" fill="#8b949e" font-size="11">12 experiments</text>
<text x="310" y="27" fill="#8b949e" font-size="11">19:04:33</text>
<text x="16" y="68" fill="#8b949e" font-size="10" letter-spacing="1">METRICS</text>
<text x="340" y="68" fill="#8b949e" font-size="10" text-anchor="end">12 experiments</text>
<rect x="12" y="76" width="163" height="72" rx="6" fill="#161b22" stroke="#30363d" stroke-width="0.5"/>
<text x="94" y="128" fill="#58a6ff" font-size="28" font-weight="700" text-anchor="middle">2.0753</text>
<text x="94" y="142" fill="#8b949e" font-size="10" text-anchor="middle" letter-spacing="1">BEST METRIC</text>
<rect x="200" y="76" width="163" height="72" rx="6" fill="#161b22" stroke="#30363d" stroke-width="0.5"/>
<text x="282" y="128" fill="#e3b341" font-size="28" font-weight="700" text-anchor="middle">1.910</text>
<text x="282" y="142" fill="#8b949e" font-size="10" text-anchor="middle" letter-spacing="1">GOAL</text>
<text x="16" y="165" fill="#8b949e" font-size="10" letter-spacing="1">PROGRESS TO GOAL</text>
<text x="360" y="165" fill="#8b949e" font-size="10" text-anchor="end">8%</text>
<rect x="12" y="172" width="351" height="4" rx="2" fill="#21262d"/>
<rect x="12" y="172" width="28" height="4" rx="2" fill="#30a14e"/>
<text x="16" y="200" fill="#8b949e" font-size="10" letter-spacing="1">LOOP CONTROL</text>
<rect x="12" y="208" width="163" height="36" rx="6" fill="#161b22" stroke="#30a14e" stroke-width="1.5"/>
<text x="94" y="231" fill="#30a14e" font-size="13" font-weight="600" text-anchor="middle">&#9654;  START</text>
<rect x="200" y="208" width="163" height="36" rx="6" fill="#161b22" stroke="#f85149" stroke-width="1"/>
<text x="282" y="231" fill="#f85149" font-size="13" font-weight="600" text-anchor="middle">&#9632;  STOP</text>
<text x="16" y="268" fill="#8b949e" font-size="10" letter-spacing="1">LAST EXPERIMENTS</text>
<text x="360" y="268" fill="#8b949e" font-size="10" text-anchor="end">newest first</text>
<text x="16" y="284" fill="#8b949e" font-size="10">#</text>
<text x="120" y="284" fill="#8b949e" font-size="10">METRIC</text>
<text x="260" y="284" fill="#8b949e" font-size="10">TAG</text>
<rect x="12" y="290" width="351" height="26" rx="3" fill="#1c2128"/>
<text x="16" y="307" fill="#58a6ff" font-size="11">5976538</text>
<text x="120" y="307" fill="#30a14e" font-size="11" font-weight="600">2.0753</text>
<rect x="248" y="296" width="90" height="14" rx="3" fill="#0d4429"/>
<text x="293" y="307" fill="#30a14e" font-size="9" text-anchor="middle">rms-norm</text>
<rect x="12" y="318" width="351" height="26" rx="3" fill="#161b22"/>
<text x="16" y="335" fill="#58a6ff" font-size="11">f791051</text>
<text x="120" y="335" fill="#f85149" font-size="11">10.0000 &#9733;</text>
<rect x="248" y="324" width="90" height="14" rx="3" fill="#2d1117"/>
<text x="293" y="335" fill="#f85149" font-size="9" text-anchor="middle">pred-error</text>
<rect x="12" y="346" width="351" height="26" rx="3" fill="#161b22"/>
<text x="16" y="363" fill="#58a6ff" font-size="11">f453ce1</text>
<text x="120" y="363" fill="#f85149" font-size="11">10.0000 &#9733;</text>
<rect x="248" y="352" width="90" height="14" rx="3" fill="#2d1117"/>
<text x="293" y="363" fill="#f85149" font-size="9" text-anchor="middle">kwta-k32</text>
<rect x="12" y="374" width="351" height="26" rx="3" fill="#161b22"/>
<text x="16" y="391" fill="#58a6ff" font-size="11">c7b9817</text>
<text x="120" y="391" fill="#f85149" font-size="11">10.0000 &#9733;</text>
<rect x="248" y="380" width="90" height="14" rx="3" fill="#2d1117"/>
<text x="293" y="391" fill="#f85149" font-size="9" text-anchor="middle">zero-init</text>
<rect x="12" y="402" width="351" height="26" rx="3" fill="#0d1f17"/>
<circle cx="22" cy="415" r="4" fill="#30a14e"/>
<text x="32" y="419" fill="#30a14e" font-size="10">experiment #10 running — eval in progress</text>
<text x="16" y="452" fill="#8b949e" font-size="10" letter-spacing="1">LIVE LOG</text>
<rect x="12" y="460" width="351" height="294" rx="6" fill="#161b22" stroke="#30363d" stroke-width="0.5"/>
<text x="20" y="476" fill="#8b949e" font-size="9">[17:29:51] [git] Committed: 5976538</text>
<text x="20" y="490" fill="#8b949e" font-size="9">[17:29:51] [3/4] EVALUATOR - running eval script...</text>
<text x="20" y="504" fill="#58a6ff" font-size="9">[17:29:51] [eval] Running: python3 harness/evaluate.py</text>
<text x="20" y="518" fill="#30a14e" font-size="9">[17:56:02] [eval] val_bpb=2.075300 goal=1.91 (5165s)</text>
<text x="20" y="532" fill="#30a14e" font-size="9">[17:56:02] [eval] gap_to_goal=+0.1653</text>
<text x="20" y="546" fill="#e3b341" font-size="9">[17:56:02] [council] Surprising result (delta=-7.9247)</text>
<text x="20" y="560" fill="#e3b341" font-size="9">           - running interpretation...</text>
<text x="20" y="574" fill="#8b949e" font-size="9">[18:01:14] [analyst] Decision: KEEP - RMS norm on</text>
<text x="20" y="588" fill="#8b949e" font-size="9">           prediction errors stabilized binding gradient.</text>
<text x="20" y="602" fill="#8b949e" font-size="9">[18:01:14] [memory] Skill saved: rms-norm-binding</text>
<text x="20" y="616" fill="#8b949e" font-size="9">[18:02:20] EXPERIMENT #10 | best=2.0753 | goal=1.91</text>
<text x="20" y="630" fill="#58a6ff" font-size="9">[18:02:20] [1/4] HYPOTHESIS COUNCIL - 4 models...</text>
<text x="20" y="644" fill="#8b949e" font-size="9">[18:04:33] [planner] Hypothesis: Apply dynamic sparsity</text>
<text x="20" y="658" fill="#8b949e" font-size="9">           threshold via surprise-sensitive kWTA...</text>
<text x="20" y="672" fill="#30a14e" font-size="9">[18:04:55] [eval] Running: python3 harness/evaluate.py</text>
<rect x="20" y="680" width="6" height="10" fill="#30a14e" opacity="0.9"/>
<text x="188" y="766" fill="#30363d" font-size="9" text-anchor="middle">auto-refresh every 5s</text>
</svg>
